<?xml version="1.0" encoding="UTF-8"?>
<!DOCTYPE svg PUBLIC "-//W3C//DTD SVG 1.1//EN" "http://www.w3.org/Graphics/SVG/1.1/DTD/svg11.dtd">
<!-- Creator: CorelDRAW (Evaluation Version) -->
<svg xmlns="http://www.w3.org/2000/svg" xml:space="preserve" width="5.41734in" height="1.33895in" version="1.1" style="shape-rendering:geometricPrecision; text-rendering:geometricPrecision; image-rendering:optimizeQuality; fill-rule:evenodd; clip-rule:evenodd"
viewBox="0 0 5421.18 1339.9"
 xmlns:xlink="http://www.w3.org/1999/xlink"
 xmlns:xodm="http://www.corel.com/coreldraw/odm/2003">
 <defs>
  <style type="text/css">
   <![CDATA[
    .fil1 {fill:#E77B2E;fill-rule:nonzero}
    .fil0 {fill:#626162;fill-rule:nonzero}
   ]]>
  </style>
 </defs>
 <g id="Layer_x0020_1">
  <metadata id="CorelCorpID_0Corel-Layer"/>
  <path class="fil0" d="M1435.05 133.26c0,73.59 -59.67,133.26 -133.26,133.26 -73.61,0 -133.26,-59.67 -133.26,-133.26 0,-73.6 59.65,-133.26 133.26,-133.26 73.6,0 133.26,59.66 133.26,133.26z"/>
  <path class="fil1" d="M378.78 1075.7l217.6 0c84.15,0 145.74,-20.14 184.69,-60.44 38.96,-40.29 58.43,-99.39 58.43,-177.29 0,-77.9 -19.47,-137.01 -58.43,-177.31 -38.94,-40.31 -100.53,-60.44 -184.69,-60.44l-217.6 0 0 475.49zm-378.78 -717.26l737.41 0c168.36,0 293.26,36.93 374.77,110.8 81.46,73.89 122.22,196.79 122.22,368.72 0,165.66 -40.97,286.99 -122.91,363.99 -81.93,77.03 -203.95,115.53 -366.02,115.53l-745.47 0 0 -959.04z"/>
  <polygon class="fil0" points="1959.27,358.44 1802.11,915.86 1799.43,915.86 1642.28,358.44 1528.89,358.44 1528.89,881.73 1657.05,1317.47 1944.49,1317.47 2145.98,632.44 2148.65,632.44 2148.65,1317.47 2492.52,1317.47 2492.52,358.44 "/>
  <path class="fil0" d="M1451.15 358.44l-342.13 0 0 23.04c24.17,14.09 46.31,29.99 66.1,47.94 92.81,84.17 139.87,221.62 139.87,408.54 0,180.32 -47.06,315.97 -139.85,403.14 -19.95,18.77 -42.08,35.39 -66.13,50.12l0 26.24 342.13 0 0 -959.02z"/>
  <path class="fil0" d="M2705.42 533.17l57.3 0c22.45,0 39.79,-7.71 52.02,-23.14 12.22,-15.43 18.33,-37.31 18.33,-65.64 0,-28.44 -5.88,-50.4 -17.62,-65.87 -11.76,-15.48 -28.44,-23.23 -50.06,-23.23l-59.97 0 0 177.88zm-31.31 -204.63l15.58 0 79.47 0c29.39,0 52.76,10.47 70.13,31.41 17.36,20.93 26.05,49.08 26.05,84.43 0,35.26 -8.88,63.34 -26.67,84.21 -17.79,20.89 -41.78,31.33 -72.01,31.33l-76.97 0 -15.58 0 0 -231.39z"/>
  <path class="fil0" d="M3104.51 475.08c0,28.55 -8.03,50.87 -24.07,66.98 -16.07,16.11 -38.36,24.15 -66.91,24.15 -29.7,0 -52.32,-7.74 -67.84,-23.21 -15.54,-15.48 -23.31,-38.11 -23.31,-67.93l0 -146.55 15.59 0 15.73 0 0 144.19c0,21.52 5.1,37.86 15.27,49.03 10.18,11.17 25.03,16.76 44.55,16.76 19.51,0 34.34,-5.59 44.46,-16.76 10.13,-11.18 15.19,-27.52 15.19,-49.03l0 -144.19 15.58 0 15.75 0 0 146.55z"/>
  <path class="fil0" d="M3205.47 433.05l77.44 0c14.48,0 25.09,-3.17 31.8,-9.52 6.73,-6.35 10.08,-16.4 10.08,-30.15 0,-13.33 -3.54,-23.08 -10.63,-29.27 -7.07,-6.2 -18.28,-9.29 -33.61,-9.29l-75.08 0 0 78.22zm-31.31 -104.52l15.58 0 92.08 0c24.56,0 43.24,5.32 56.04,15.98 12.8,10.65 19.19,26.25 19.19,46.82 0,20.25 -6.66,36.09 -19.97,47.53 -3.36,2.83 -6.99,5.35 -10.87,7.56l5.2 2.51c14.05,8.09 21.35,21.67 21.88,40.77l1.26 42.18c0.19,6.94 1.1,11.91 2.67,14.96 1.57,3.05 4.62,5.67 9.13,7.87l0 5.04 -38.51 0c-0.85,-1.89 -1.68,-6.82 -2.52,-14.8 -0.84,-7.96 -1.47,-16.83 -1.9,-26.6l-0.68 -18.25c-0.43,-14.37 -3.95,-24.64 -10.55,-30.77 -6.61,-6.15 -17.41,-9.22 -32.41,-9.22l-74.3 0 0 99.79 -15.58 0 -15.73 0 0 -231.38z"/>
  <path class="fil0" d="M3517.79 566.22c-32.11,0 -58.07,-11.2 -77.9,-33.59 -19.82,-22.42 -29.74,-51.83 -29.74,-88.24 0,-36.51 10.13,-66.01 30.38,-88.45 20.25,-22.46 46.76,-33.69 79.49,-33.69 25.28,0 47.05,7.09 65.24,21.25 18.22,14.16 28.89,32.31 32.04,54.47l-30.23 0c-2.94,-15.32 -10.39,-27.16 -22.33,-35.5 -11.97,-8.34 -27.51,-12.52 -46.6,-12.52 -22.56,0 -40.82,8.74 -54.77,26.21 -13.95,17.47 -20.93,40.38 -20.93,68.71 0,30.12 6.76,53.4 20.22,69.88 13.5,16.47 32.51,24.71 57.07,24.71 23.82,0 43.07,-8.71 57.77,-26.13 2.3,-2.72 4.4,-5.61 6.3,-8.66 2.51,-4.09 4.64,-9.81 6.38,-17.16 1.72,-7.34 2.6,-14.32 2.6,-20.92l0 -2.85 -72.54 0 0 -26.44 101.3 0 0 122.46 -19.51 0 -7.55 -29.12 -1.74 2.04c-18.99,22.35 -43.95,33.52 -74.92,33.52z"/>
  <path class="fil0" d="M3732.74 465.17l72.8 0 -35.67 -102.63 0.08 0 -37.22 102.63zm20.78 -136.64l17.79 0 17.94 0 83.11 231.4 -16.8 0 -16.82 0 -23.56 -67.06 -92.41 0 -24.31 67.06 -16.07 0 -16.23 0 87.35 -231.4z"/>
  <polygon class="fil0" points="2677.25,715.38 2692.83,715.38 2708.56,715.38 2708.56,946.75 2692.98,946.75 2677.25,946.75 "/>
  <polygon class="fil0" points="2808.43,946.76 2793.33,946.76 2778.2,946.76 2778.2,715.38 2796.94,715.38 2815.83,715.38 2931.67,903.42 2931.67,715.38 2946.79,715.38 2961.9,715.38 2961.9,946.76 2944.75,946.76 2927.59,946.76 2808.43,757.98 "/>
  <polygon class="fil0" points="3030.28,946.76 3030.28,715.38 3190.52,715.38 3190.52,729.23 3190.52,743.07 3061.61,743.07 3061.61,813.76 3174.47,813.76 3174.47,827.6 3174.47,841.46 3061.61,841.46 3061.61,946.76 3046.03,946.76 "/>
  <path class="fil0" d="M3275.26 819.89l77.44 0c14.47,0 25.07,-3.18 31.79,-9.53 6.73,-6.35 10.07,-16.39 10.07,-30.14 0,-13.33 -3.54,-23.1 -10.62,-29.28 -7.08,-6.19 -18.29,-9.28 -33.61,-9.28l-75.08 0 0 78.24zm-31.33 -104.52l15.58 0 92.08 0c24.56,0 43.25,5.32 56.04,15.98 12.8,10.65 19.21,26.25 19.21,46.82 0,20.25 -6.66,36.09 -19.99,47.53 -3.36,2.83 -6.98,5.35 -10.85,7.56l5.18 2.51c14.05,8.08 21.36,21.67 21.87,40.77l1.26 42.18c0.21,6.92 1.1,11.91 2.67,14.96 1.57,3.05 4.61,5.67 9.13,7.87l0 5.03 -38.5 0c-0.85,-1.89 -1.68,-6.81 -2.53,-14.79 -0.83,-7.96 -1.46,-16.84 -1.89,-26.6l-0.68 -18.26c-0.43,-14.37 -3.95,-24.63 -10.55,-30.77 -6.61,-6.13 -17.43,-9.2 -32.41,-9.2l-74.3 0 0 99.79 -15.58 0 -15.75 0 0 -231.38z"/>
  <path class="fil0" d="M3535.66 852l72.82 0 -35.68 -102.64 0.1 0 -37.23 102.64zm20.79 -136.62l17.78 0 17.94 0 83.13 231.37 -16.8 0 -16.82 0 -23.57 -67.05 -92.4 0 -24.31 67.05 -16.07 0 -16.23 0 87.35 -231.37z"/>
  <polygon class="fil0" points="2701.96,1333.6 2686.85,1333.6 2671.58,1333.6 2671.58,1102.21 2694.09,1102.21 2716.59,1102.21 2782.79,1299.13 2782.77,1299.13 2848.35,1102.21 2870.86,1102.21 2893.36,1102.21 2893.36,1333.6 2878.25,1333.6 2862.98,1333.6 2862.98,1137.78 2862.88,1137.78 2797.65,1333.6 2782.54,1333.6 2767.44,1333.6 2702.01,1138.4 2701.96,1138.4 "/>
  <polygon class="fil0" points="2961.9,1102.21 2977.48,1102.21 2993.23,1102.21 2993.23,1333.59 2977.65,1333.59 2961.9,1333.59 "/>
  <polygon class="fil0" points="3093.08,1333.6 3077.98,1333.6 3062.87,1333.6 3062.87,1102.21 3081.6,1102.21 3100.48,1102.21 3216.34,1290.26 3216.34,1102.21 3231.45,1102.21 3246.56,1102.21 3246.56,1333.6 3229.4,1333.6 3212.24,1333.6 3093.08,1144.83 "/>
  <polygon class="fil0" points="3316.49,1102.21 3332.08,1102.21 3347.82,1102.21 3347.82,1333.59 3332.24,1333.59 3316.49,1333.59 "/>
  <polygon class="fil0" points="3447.68,1333.6 3432.57,1333.6 3417.46,1333.6 3417.46,1102.21 3436.2,1102.21 3455.07,1102.21 3570.93,1290.26 3570.93,1102.21 3586.04,1102.21 3601.15,1102.21 3601.15,1333.6 3583.99,1333.6 3566.83,1333.6 3447.68,1144.83 "/>
  <path class="fil0" d="M3764.89 1339.9c-32.11,0 -58.07,-11.22 -77.89,-33.61 -19.84,-22.41 -29.75,-51.82 -29.75,-88.24 0,-36.51 10.12,-66.01 30.37,-88.45 20.25,-22.46 46.76,-33.69 79.5,-33.69 25.28,0 47.03,7.09 65.24,21.26 18.21,14.15 28.89,32.31 32.02,54.46l-30.22 0c-2.95,-15.32 -10.4,-27.16 -22.35,-35.5 -11.95,-8.34 -27.5,-12.52 -46.6,-12.52 -22.56,0 -40.81,8.74 -54.76,26.21 -13.97,17.47 -20.94,40.38 -20.94,68.71 0,30.12 6.76,53.4 20.22,69.88 13.49,16.47 32.51,24.71 57.07,24.71 23.82,0 43.07,-8.71 57.76,-26.13 2.32,-2.72 4.41,-5.61 6.3,-8.66 2.53,-4.09 4.64,-9.81 6.38,-17.15 1.74,-7.34 2.6,-14.32 2.6,-20.93l0 -2.83 -72.54 0 0 -26.44 101.31 0 0 122.44 -19.51 0 -7.56 -29.12 -1.74 2.04c-18.99,22.35 -43.95,33.54 -74.92,33.54z"/>
  <path class="fil0" d="M4073.4 1209.24l62.19 0c16.28,0 28.17,-3.44 35.73,-10.31 7.54,-6.87 11.33,-17.65 11.33,-32.34 0,-13.01 -3.78,-22.53 -11.33,-28.58 -7.56,-6.03 -19.46,-9.03 -35.73,-9.03l-62.19 0 0 80.27zm-31.31 -107.04l15.58 0 85.62 0c22.47,0 40.01,5.65 52.66,16.93 12.65,11.27 18.97,26.88 18.97,46.82 0,21.93 -6.32,39.08 -18.97,51.47 -12.65,12.37 -30.19,18.58 -52.66,18.58 -29.48,-0.11 -52.77,0 -69.88,0.31l0 97.28 -15.58 0 -15.74 0 0 -231.39z"/>
  <polygon class="fil0" points="4251.96,1102.21 4269.3,1102.21 4286.8,1102.21 4353.09,1300.03 4353.27,1300.03 4419.41,1102.21 4436.73,1102.21 4454.07,1102.21 4369.85,1333.59 4353.02,1333.59 4336.18,1333.59 "/>
  <polygon class="fil0" points="4559.44,1129.91 4481.2,1129.91 4481.2,1116.06 4481.2,1102.21 4669,1102.21 4669,1116.06 4669,1129.91 4590.77,1129.91 4590.77,1333.59 4575.19,1333.59 4559.44,1333.59 "/>
  <polygon class="fil0" points="4819.92,1333.6 4819.92,1102.21 4835.5,1102.21 4851.25,1102.21 4851.25,1305.9 4968.51,1305.9 4968.51,1319.74 4968.51,1333.6 "/>
  <polygon class="fil0" points="5073.57,1129.91 4995.34,1129.91 4995.34,1116.06 4995.34,1102.21 5183.12,1102.21 5183.12,1116.06 5183.12,1129.91 5104.9,1129.91 5104.9,1333.59 5089.32,1333.59 5073.57,1333.59 "/>
  <path class="fil0" d="M5261.24 1306.83l57.3 0c22.45,0 39.79,-7.71 52.02,-23.14 12.22,-15.41 18.35,-37.31 18.35,-65.64 0,-28.44 -5.88,-50.4 -17.64,-65.87 -11.76,-15.47 -28.43,-23.21 -50.06,-23.21l-59.97 0 0 177.86zm-31.31 -204.63l15.58 0 79.49 0c29.38,0 52.76,10.47 70.13,31.41 17.36,20.93 26.05,49.07 26.05,84.43 0,35.26 -8.9,63.34 -26.68,84.22 -17.78,20.88 -41.79,31.33 -72.01,31.33l-76.97 0 -15.58 0 0 -231.4z"/>
 </g>
</svg>
