<svg id="SvgjsSvg1001" width="288" height="288" xmlns="http://www.w3.org/2000/svg" version="1.1" xmlns:xlink="http://www.w3.org/1999/xlink" xmlns:svgjs="http://svgjs.com/svgjs"><defs id="SvgjsDefs1002"></defs><g id="SvgjsG1008"><svg xmlns="http://www.w3.org/2000/svg" viewBox="0 0 132.252 113.672" width="288" height="288"><g transform="translate(-1.608 -10.97)"><path d="m 280.1258,268.88348 c -4.25038,10.87488 -13.47764,37.33968 -13.79377,62.85285 -0.4111,33.18709 -0.41797,57.17578 -0.41797,57.17578 h 227.05603 a 12.953735,12.953735 135 0 0 12.95374,-12.95374 l 0,-38.71947 a 12.953735,12.953735 45 0 0 -12.95374,-12.95374 h -22.64001 v -8.22266 a 7.4414063,7.4414063 45 0 0 -7.44141,-7.44141 h -43.08203 a 7.4414063,7.4414063 135 0 0 -7.44141,7.44141 v 8.22266 h -34.2832 l -5.05743,-48.06651 a 13.923664,13.923664 41.996797 0 0 -13.84722,-12.4667 h -71.39751 c -3.06377,0 -6.53884,2.27814 -7.65407,5.13153 z" transform="scale(.26458)" fill="#E77B2E" class="svgShape color000000-1 selectable"></path><rect width="20.231" height="5.641" x="77.129" y="101.649" fill="#E77B2E" class="svgShape color000000-2 selectable"></rect><path d="M77.8767 70.541706c0 0-3.16847-10.708624-7.33044-14.120415C66.38426 53.0095 36.24893 26.922563 36.24893 26.922563l-23.29167 33.495181 8.9516 17.455902c0 0-18.35725.09035-20.0999-7.716392-1.74268-7.806747 8.392-12.638543 8.392-12.638543l23.41264-45.45478 6.05385-1.094215 1.83343 2.444336-3.28104 3.061653-.20524 6.20683c0 0 38.05991 21.724281 42.24538 25.711391 4.18547 3.98711 8.11581 22.974013 8.11581 22.974013zM62.416511 108.01424h-.151924v.007c-4.419838.22812-7.886568 3.87816-7.886859 8.30389 0 4.42592 3.466809 8.07627 7.886859 8.3044v.0124h54.953243v-.008c4.45582-.18331 7.97372-3.84895 7.97367-8.30853-.00024-4.45939-3.38931-7.68566-7.97367-8.30803v-.003h-.0646c-9.90558-1.28044-20.144661-2.44969-30.176471-3.70417-8.674761.18603-16.674888 2.73202-24.560238 3.70417z" fill="#E77B2E" class="svgShape color000000-3 selectable"></path><path d="M41.156512 13.076715l-1.236328 1.376953 36.892708 34.095574 1.236328-1.378907zM30.268665 18.957031L5.2628055 52.257812 5.0811649 63.853516l1.8515624.0293.171875-10.99414 24.6464847-32.820313z" color="#000" font-family="sans-serif" font-weight="400" overflow="visible" style="line-height:normal;font-variant-ligatures:normal;font-variant-position:normal;font-variant-caps:normal;font-variant-numeric:normal;font-variant-alternates:normal;font-variant-east-asian:normal;font-feature-settings:normal;font-variation-settings:normal;text-indent:0;text-align:start;text-decoration-line:none;text-decoration-style:solid;text-decoration-color:#000;text-transform:none;text-orientation:mixed;shape-padding:0;shape-margin:0;inline-size:0;isolation:auto;mix-blend-mode:normal" fill="#E77B2E" class="svgShape color000000-4 selectable"></path><path d="m 5.9003906,51.824219 -0.099609,1.849609 10.3027344,0.5625 0.09961,-1.849609 z" color="#000" font-family="sans-serif" font-weight="400" overflow="visible" style="line-height:normal;font-variant-ligatures:normal;font-variant-position:normal;font-variant-caps:normal;font-variant-numeric:normal;font-variant-alternates:normal;font-variant-east-asian:normal;font-feature-settings:normal;font-variation-settings:normal;text-indent:0;text-align:start;text-decoration-line:none;text-decoration-style:solid;text-decoration-color:#000;text-transform:none;text-orientation:mixed;shape-padding:0;shape-margin:0;inline-size:0;isolation:auto;mix-blend-mode:normal" fill="#E77B2E" class="svgShape color000000-5 selectable"></path></g></svg></g></svg>